<svg fill="#FF675C" xmlns="http://www.w3.org/2000/svg" xmlns:xlink="http://www.w3.org/1999/xlink" version="1.1" x="0px" y="0px" viewBox="0 0 100 100" style="enable-background:new 0 0 100 100;" xml:space="preserve"><style type="text/css">
	.st0{fill:none;stroke:#FF675C;stroke-width:2;stroke-linecap:round;stroke-linejoin:round;stroke-miterlimit:10;}
	.st1{fill:none;stroke:#FF675C;stroke-width:2;stroke-miterlimit:10;}
</style><path d="M13.7,37.2h1.8v52.1c0,0.6,0.4,1,1,1h67.7c0.6,0,1-0.4,1-1V37.2h1.8c0.6,0,1-0.4,1-1V19.5c0-0.6-0.4-1-1-1h-6.6  c-0.1-2.1-0.8-3.8-2.2-5.2c-2.1-2.1-5.7-3.2-10.8-3.2c-4.7,0-9.7,1.7-12.4,4.6c-0.1-2.3-2.2-4.1-4.7-4.1c-2.5,0-4.6,1.8-4.7,4.1  c-2.7-2.8-7.7-4.5-12.4-4.5c-5.1,0-8.7,1.1-10.8,3.2c-1.3,1.3-2,3.1-2.2,5.2h-6.6c-0.6,0-1,0.4-1,1v16.8  C12.7,36.8,13.1,37.2,13.7,37.2z M17.5,37.2h24.1v51.1H17.5V37.2z M57,20.5v14.8H43.6V20.5H57z M57,37.2v51.1H43.6V37.2H57z   M83.1,88.4H59V37.2h24.1V88.4z M85.9,35.2H59V20.5h26.9V35.2z M67.4,12.1c4.5,0,7.7,0.9,9.4,2.6c1,1,1.5,2.2,1.6,3.8H55.1  C55.7,15.1,61.4,12.1,67.4,12.1z M50.3,12.6c1.5,0,2.7,1,2.7,2.3v3.6h-5.4v-3.6C47.6,13.6,48.8,12.6,50.3,12.6z M23.8,14.7  c1.7-1.7,4.9-2.6,9.4-2.6c6,0,11.7,3,12.3,6.4H22.3C22.4,16.9,22.9,15.7,23.8,14.7z M14.7,20.5h26.9v14.8H14.7V20.5z"></path></svg>