<svg fill="#FF675C" xmlns="http://www.w3.org/2000/svg" xmlns:xlink="http://www.w3.org/1999/xlink" version="1.1" x="0px" y="0px" viewBox="0 0 100 100" style="enable-background:new 0 0 100 100;" xml:space="preserve"><style type="text/css">
	.st0{fill:none;stroke:#FF675C;stroke-width:2;stroke-linecap:round;stroke-linejoin:round;stroke-miterlimit:10;}
	.st1{fill:none;stroke:#FF675C;stroke-width:2;stroke-miterlimit:10;}
</style><path d="M73.6,44.6c-0.5-2.2-2-3.6-4.1-4c-2.5-0.4-5.6,1.2-6.7,4.8c-1.8,5.9,2.8,12.1,3,12.3c0.2,0.2,0.4,0.4,0.7,0.4  c0.1,0,0.6,0.1,1.4,0.1c2.5,0,7.6-0.5,10.6-3.9c2.5-2.8,2.2-6.3,0.5-8.2C77.8,44.4,75.7,43.9,73.6,44.6z M77.1,53  c-2.9,3.3-8.4,3.3-9.9,3.2c-0.9-1.3-3.7-6-2.4-10.2c0.8-2.6,2.9-3.6,4.5-3.4c1.6,0.2,2.6,1.5,2.6,3.5c0,0.4,0.2,0.7,0.5,0.9  c0.3,0.2,0.7,0.2,1,0c1.7-1,3.3-0.9,4.3,0.4C78.6,48.6,78.9,50.9,77.1,53z"></path><path d="M29.1,55.6c-1.9,0.9-2.9,2.8-2.7,5c-2.2,0-4,1.1-4.8,3.1c-0.9,2.3-0.2,5.7,3.1,7.6c1.8,1.1,3.8,1.4,5.6,1.4  c3.7,0,6.8-1.4,7-1.5c0.3-0.1,0.4-0.3,0.5-0.6c0.1-0.3,2.6-7.6-0.9-12.7C34.8,54.9,31.3,54.4,29.1,55.6z M36.1,69.6  c-1.5,0.6-6.7,2.2-10.5,0c-2.4-1.4-2.8-3.7-2.2-5.2c0.5-1.2,1.5-1.8,2.9-1.8c0.4,0,0.7,0,1.1,0.1c0.3,0.1,0.7,0,1-0.3s0.3-0.6,0.2-1  c-0.6-1.9-0.1-3.4,1.4-4.1c1.4-0.7,3.7-0.5,5.3,1.8C37.8,62.8,36.6,68.1,36.1,69.6z"></path><path d="M85.2,28.5H68.6v-9c0-2.8-2.3-5.1-5.1-5.1H37c-2.8,0-5.1,2.3-5.1,5.1v9H15.3c-2.8,0-5.1,2.3-5.1,5.1v46.8  c0,2.8,2.3,5.1,5.1,5.1h69.9c2.8,0,5.1-2.3,5.1-5.1V33.5C90.2,30.7,88,28.5,85.2,28.5z M33.9,19.4c0-1.7,1.4-3.1,3.1-3.1h26.5  c1.7,0,3.1,1.4,3.1,3.1v9H33.9V19.4z M88.2,80.3c0,1.7-1.4,3.1-3.1,3.1H15.3c-1.7,0-3.1-1.4-3.1-3.1V33.5c0-1.7,1.4-3.1,3.1-3.1  h69.9c1.7,0,3.1,1.4,3.1,3.1V80.3z"></path><path d="M46.9,36.7c-0.1-0.2-0.4-0.4-0.6-0.5s-0.5,0-0.8,0.1l-12,7c-0.5,0.3-0.6,0.9-0.4,1.4l7,12c0.2,0.3,0.5,0.5,0.9,0.5  c0.2,0,0.3,0,0.5-0.1l12-7c0.5-0.3,0.6-0.9,0.4-1.4L46.9,36.7z M41.3,54.8l-6-10.3l10.3-6l6,10.3L41.3,54.8z"></path><path d="M70.2,64.2l-10.7-3.8c-0.5-0.2-1.1,0.1-1.3,0.6l-3.8,10.7c-0.1,0.2-0.1,0.5,0,0.8s0.3,0.4,0.6,0.5l10.7,3.8  c0.1,0,0.2,0.1,0.3,0.1c0.4,0,0.8-0.3,0.9-0.7l3.8-10.7c0.1-0.2,0.1-0.5,0-0.8S70.5,64.3,70.2,64.2z M65.5,74.6l-8.8-3.1l3.1-8.8  l8.8,3.1L65.5,74.6z"></path></svg>