<svg fill="#FFFFFF" xmlns="http://www.w3.org/2000/svg" xmlns:xlink="http://www.w3.org/1999/xlink" version="1.1" x="0px" y="0px" viewBox="0 0 100 100" enable-background="new 0 0 100 100" xml:space="preserve"><ellipse fill="#FFFFFF" cx="40.625" cy="60.312" rx="1.875" ry="2.812"></ellipse><ellipse fill="#FFFFFF" cx="59.375" cy="60.312" rx="1.875" ry="2.812"></ellipse><path fill="#FFFFFF" d="M59.375,65h-18.75c-0.586,0-1.137,0.274-1.492,0.74c-0.354,0.467-0.471,1.072-0.313,1.637  c0.079,0.285,2.049,6.998,11.181,6.998c9.133,0,11.102-6.713,11.182-6.998c0.156-0.564,0.041-1.17-0.315-1.637  C60.514,65.274,59.961,65,59.375,65z"></path><path fill="#FFFFFF" d="M72.5,50.938h-0.938V38.75c0-3.618-2.944-6.562-6.562-6.562h-0.938V27.5c0-4.652-3.785-8.438-8.438-8.438  h-11.25c-4.653,0-8.438,3.785-8.438,8.438v4.688H35c-3.618,0-6.562,2.944-6.562,6.562v12.188H27.5c-2.585,0-4.688,2.102-4.688,4.688  V80c0,0.519,0.419,0.938,0.938,0.938h52.5c0.518,0,0.938-0.419,0.938-0.938V55.625C77.188,53.039,75.085,50.938,72.5,50.938z   M44.375,20.938h11.25c2.992,0,5.493,2.025,6.28,4.767c-0.487,0.353-0.924,0.739-1.32,1.135c-0.894,0.894-1.599,1.599-3.085,1.599  s-2.193-0.707-3.087-1.601c-0.958-0.957-2.15-2.149-4.413-2.149s-3.455,1.192-4.413,2.149c-0.894,0.894-1.6,1.601-3.087,1.601  s-2.192-0.705-3.085-1.601c-0.397-0.396-0.833-0.78-1.32-1.133C38.882,22.963,41.383,20.938,44.375,20.938z M37.812,27.901  c0.092,0.089,0.183,0.17,0.276,0.264c0.958,0.955,2.148,2.147,4.411,2.147s3.455-1.192,4.413-2.149  c0.894-0.894,1.6-1.601,3.087-1.601s2.193,0.707,3.087,1.601c0.958,0.957,2.15,2.149,4.413,2.149s3.453-1.19,4.411-2.147  c0.093-0.094,0.185-0.175,0.276-0.264v4.286H37.812V27.901z M35,34.062h30c2.585,0,4.688,2.102,4.688,4.688v3.651  c-0.621,0.397-1.153,0.864-1.602,1.311c-0.894,0.896-1.599,1.601-3.085,1.601s-2.193-0.707-3.087-1.601  c-0.958-0.957-2.15-2.149-4.413-2.149s-3.455,1.192-4.413,2.149c-0.894,0.894-1.6,1.601-3.087,1.601s-2.193-0.707-3.087-1.601  c-0.958-0.957-2.15-2.149-4.413-2.149s-3.455,1.192-4.413,2.149c-0.894,0.894-1.6,1.601-3.087,1.601  c-1.485,0-2.192-0.705-3.085-1.599c-0.449-0.448-0.981-0.913-1.602-1.314V38.75C30.312,36.164,32.415,34.062,35,34.062z   M30.312,44.777c0.092,0.09,0.183,0.169,0.276,0.263c0.958,0.957,2.15,2.147,4.411,2.147c2.263,0,3.455-1.192,4.413-2.149  c0.894-0.894,1.6-1.601,3.087-1.601s2.193,0.707,3.087,1.601c0.958,0.957,2.15,2.149,4.413,2.149s3.455-1.192,4.413-2.149  c0.894-0.894,1.6-1.601,3.087-1.601s2.193,0.707,3.087,1.601c0.958,0.957,2.15,2.149,4.413,2.149s3.453-1.192,4.411-2.147  c0.093-0.094,0.185-0.173,0.276-0.263v6.16H30.312V44.777z M75.312,79.062H24.688V55.625c0-1.551,1.262-2.812,2.812-2.812h45  c1.551,0,2.812,1.262,2.812,2.812V79.062z"></path></svg>