<svg fill="#FF675C" xmlns="http://www.w3.org/2000/svg" xmlns:xlink="http://www.w3.org/1999/xlink" version="1.1" x="0px" y="0px" viewBox="0 0 100 100" style="enable-background:new 0 0 100 100;" xml:space="preserve"><style type="text/css">
	.st0{fill:none;stroke:#FF675C;stroke-width:2;stroke-linecap:round;stroke-linejoin:round;stroke-miterlimit:10;}
	.st1{fill:none;stroke:#FF675C;stroke-width:2;stroke-miterlimit:10;}
</style><path d="M60.3,11.5c-0.5-0.2-1.1,0-1.3,0.5l-2,4.7c-0.2,0.5,0,1.1,0.5,1.3c0.1,0.1,0.3,0.1,0.4,0.1c0.4,0,0.8-0.2,0.9-0.6l2-4.7  C61,12.3,60.8,11.7,60.3,11.5z"></path><path d="M60,20.9c0.2,0.4,0.5,0.6,0.9,0.6c0.1,0,0.3,0,0.4-0.1l4.6-2.2c0.5-0.2,0.7-0.8,0.5-1.3c-0.2-0.5-0.8-0.7-1.3-0.5l-4.6,2.2  C60,19.8,59.8,20.4,60,20.9z"></path><path d="M70.7,25.3l-16.3,4c-0.5,0.1-0.8,0.5-0.8,1c0.1,3.6,1.9,12.5,2.7,16c2.8,11.5,8.9,19.7,14.4,19.7c0.1,0,0.2,0,0.3,0l5,20.3  l-5.6,1.4c-0.5,0.1-0.9,0.7-0.7,1.2c0.1,0.5,0.5,0.8,1,0.8c0.1,0,0.2,0,0.2,0l13.1-3.2c0.5-0.1,0.9-0.7,0.7-1.2  c-0.1-0.5-0.7-0.9-1.2-0.7l-5.6,1.4l-5-20.3c5-2.3,6.7-12.5,3.9-24.2c-0.9-3.5-3.4-12.2-5-15.4C71.6,25.4,71.1,25.2,70.7,25.3z   M70.3,27.4c0.6,1.4,1.3,3.4,2,5.6l-15.9,3.7c-0.4-2.2-0.7-4.2-0.8-5.7L70.3,27.4z M71.5,63.8c-4,1-10.3-6-13.2-18  c-0.4-1.6-1-4.3-1.5-7.1l16.1-3.8c0.8,2.7,1.5,5.3,1.9,6.8C77.8,53.8,75.5,62.9,71.5,63.8z"></path><path d="M70.7,39.6c-0.5,0.1-0.9,0.7-0.7,1.2c2,8,1.6,14.7,0.8,16.7c-0.2,0.5,0,1.1,0.5,1.3c0.1,0.1,0.3,0.1,0.4,0.1  c0.4,0,0.8-0.2,0.9-0.6c1-2.3,1.4-9.5-0.7-18C71.8,39.8,71.2,39.5,70.7,39.6z"></path><path d="M22.8,73l13.1,3.2c0.1,0,0.2,0,0.2,0c0.4,0,0.9-0.3,1-0.8c0.1-0.5-0.2-1.1-0.7-1.2l-5.6-1.4l5-20.3c0.1,0,0.2,0,0.3,0  c5.5,0,11.6-8.2,14.4-19.7c0.9-3.5,2.6-12.4,2.7-16c0-0.5-0.3-0.9-0.8-1L36,12c-0.5-0.1-0.9,0.1-1.1,0.5c-1.6,3.3-4.1,11.9-5,15.4  c-2.9,11.6-1.1,21.9,3.9,24.2l-5,20.3l-5.6-1.4c-0.5-0.1-1.1,0.2-1.2,0.7C21.9,72.3,22.2,72.9,22.8,73z M36.4,14.1l14.7,3.6  c-0.1,1.5-0.4,3.5-0.8,5.7l-15.9-3.7C35.1,17.5,35.8,15.5,36.4,14.1z M31.9,28.4c0.4-1.6,1.1-4.2,1.9-6.8l16.1,3.8  c-0.5,2.8-1.1,5.4-1.5,7.1c-2.9,12-9.2,19-13.2,18C31.2,49.5,28.9,40.4,31.9,28.4z"></path><path d="M35,45.6c0.1,0,0.3,0,0.4-0.1c0.5-0.2,0.8-0.8,0.5-1.3c-0.8-2-1.2-8.8,0.8-16.7c0.1-0.5-0.2-1.1-0.7-1.2  c-0.5-0.1-1.1,0.2-1.2,0.7c-2.1,8.5-1.7,15.6-0.7,18C34.2,45.3,34.6,45.6,35,45.6z"></path></svg>