<svg fill="#FF675C" xmlns:x="http://ns.adobe.com/Extensibility/1.0/" xmlns:i="http://ns.adobe.com/AdobeIllustrator/10.0/" xmlns:graph="http://ns.adobe.com/Graphs/1.0/" xmlns="http://www.w3.org/2000/svg" xmlns:xlink="http://www.w3.org/1999/xlink" version="1.0" x="0px" y="0px" viewBox="0 0 100 100" enable-background="new 0 0 100 100" xml:space="preserve"><metadata><sfw xmlns="http://ns.adobe.com/SaveForWeb/1.0/"><slices></slices><sliceSourceBounds y="-8142" x="-8141" width="16383" height="16383" bottomLeftOrigin="true"></sliceSourceBounds></sfw></metadata><g><g><path d="M50,35.787c2.331,0,4.227-1.896,4.227-4.226c0-2.331-1.896-4.228-4.227-4.228c-2.331,0-4.227,1.896-4.227,4.228    C45.773,33.892,47.669,35.787,50,35.787z M50,29.473c1.152,0,2.089,0.937,2.089,2.089c0,1.151-0.937,2.088-2.089,2.088    c-1.151,0-2.088-0.937-2.088-2.088C47.912,30.409,48.849,29.473,50,29.473z"></path><path d="M27.21,22.683c0.2,2.003,2,3.632,4.013,3.632h2.012c1.646,0,4.088-0.576,5.56-1.312l7.271-3.635    c0.148-0.073,0.298-0.157,0.471-0.265l0.035-0.021c0.417,0.723,1.195,1.21,2.087,1.21h2.682c0.893,0,1.671-0.487,2.088-1.21    l0.034,0.021c0.169,0.105,0.324,0.191,0.47,0.265l7.272,3.636c1.472,0.736,3.914,1.312,5.56,1.312h2.012    c2.013,0,3.812-1.629,4.014-3.632l0.136-1.367c0.153-1.53,0.153-4.021,0.001-5.551l-0.137-1.368    c-0.201-2.003-2.001-3.632-4.014-3.632h-2.012c-1.602,0-4.046,0.396-5.564,0.903l-6.981,2.327    c-0.219,0.072-0.438,0.162-0.654,0.264l-0.305,0.146c-0.44-0.58-1.136-0.957-1.919-0.957h-2.682c-0.783,0-1.478,0.377-1.918,0.957    l-0.306-0.146c-0.215-0.103-0.435-0.191-0.653-0.264L38.8,11.668c-1.519-0.507-3.964-0.903-5.565-0.903h-2.012    c-2.013,0-3.813,1.629-4.014,3.633l-0.136,1.367c-0.153,1.53-0.153,4.021,0,5.55L27.21,22.683z M55.093,15.957l6.783-2.261    c1.29-0.43,3.528-0.793,4.889-0.793h2.012c0.93,0,1.793,0.781,1.886,1.706l0.137,1.368c0.139,1.389,0.139,3.735,0,5.125    l-0.136,1.367c-0.094,0.926-0.957,1.707-1.887,1.707h-2.012c-1.316,0-3.425-0.498-4.603-1.087l-7.069-3.534V15.957z     M48.387,15.857c0-0.149,0.122-0.271,0.272-0.271h2.682c0.15,0,0.272,0.122,0.272,0.271v4.023c0,0.15-0.122,0.272-0.272,0.272    h-2.682c-0.15,0-0.272-0.122-0.272-0.272V15.857z M29.202,15.978l0.136-1.368c0.092-0.925,0.956-1.706,1.886-1.706h2.012    c1.36,0,3.599,0.363,4.889,0.793l6.783,2.261v3.599l-7.069,3.534c-1.178,0.589-3.286,1.087-4.603,1.087h-2.012    c-0.93,0-1.793-0.781-1.886-1.706l-0.137-1.369C29.062,19.713,29.062,17.366,29.202,15.978z"></path><path d="M20.106,9.378c-0.636-1.808-1.783-2.002-2.247-2.002c-0.505,0-1.469,0.215-2.24,1.659L6.481,26.133    c-0.542,1.014-0.629,2.143-0.246,3.178c0.383,1.034,1.185,1.834,2.256,2.25l7.682,2.985c0.487,0.188,0.84,0.532,0.993,0.968    c0.153,0.436,0.093,0.925-0.168,1.378l-4.124,7.134c-1.089,1.886-0.886,4.701,0.463,6.41l32.286,40.892    c0.728,0.921,1.263,1.297,1.845,1.297c0.398,0,0.757-0.186,0.987-0.509c0.35-0.494,0.328-1.162-0.074-2.307L20.106,9.378z     M15.015,49.109c-0.803-1.017-0.938-2.892-0.29-4.014l4.124-7.134c0.579-1.003,0.698-2.124,0.334-3.157    c-0.363-1.034-1.158-1.834-2.236-2.252l-7.681-2.985c-0.494-0.191-0.858-0.547-1.026-1s-0.123-0.96,0.127-1.428l9.137-17.097    c0.136-0.255,0.253-0.394,0.33-0.467c0.064,0.084,0.159,0.239,0.255,0.512l27.193,77.356L15.015,49.109z"></path><path d="M87.126,44.025l-4.123-7.134c-0.262-0.453-0.322-0.942-0.169-1.378s0.506-0.779,0.993-0.968l7.681-2.985    c1.072-0.416,1.874-1.216,2.257-2.25c0.384-1.035,0.297-2.164-0.246-3.179L84.382,9.035c-0.771-1.444-1.735-1.659-2.24-1.659    c-0.464,0-1.611,0.194-2.247,2.002L51.621,89.809c-0.402,1.145-0.424,1.812-0.074,2.307c0.229,0.323,0.589,0.509,0.986,0.509l0,0    c0.583,0,1.117-0.376,1.845-1.297l32.286-40.892C88.013,48.727,88.217,45.911,87.126,44.025z M81.911,10.088    c0.096-0.272,0.19-0.428,0.255-0.512c0.077,0.073,0.193,0.212,0.329,0.467l9.139,17.097c0.249,0.468,0.294,0.975,0.126,1.428    s-0.532,0.809-1.025,1l-7.682,2.985c-1.078,0.418-1.872,1.218-2.235,2.252c-0.364,1.033-0.245,2.154,0.334,3.157l4.124,7.134    c0.648,1.122,0.513,2.997-0.29,4.014L54.719,87.444L81.911,10.088z"></path><path d="M50,49.997c2.331,0,4.227-1.896,4.227-4.228c0-2.33-1.896-4.226-4.227-4.226c-2.331,0-4.227,1.896-4.227,4.226    C45.773,48.101,47.669,49.997,50,49.997z M50,43.682c1.152,0,2.089,0.937,2.089,2.088c0,1.152-0.937,2.089-2.089,2.089    c-1.151,0-2.088-0.937-2.088-2.089C47.912,44.618,48.849,43.682,50,43.682z"></path><path d="M54.227,59.979c0-2.331-1.896-4.227-4.227-4.227c-2.331,0-4.227,1.896-4.227,4.227c0,2.33,1.896,4.227,4.227,4.227    C52.331,64.206,54.227,62.31,54.227,59.979z M50,62.067c-1.151,0-2.088-0.937-2.088-2.088s0.937-2.089,2.088-2.089    c1.152,0,2.089,0.938,2.089,2.089S51.152,62.067,50,62.067z"></path></g></g></svg>