<svg fill="#FF675C" xmlns="http://www.w3.org/2000/svg" xmlns:xlink="http://www.w3.org/1999/xlink" version="1.1" x="0px" y="0px" viewBox="0 0 100 100" style="enable-background:new 0 0 100 100;" xml:space="preserve"><g><path d="M76.9,16.5h-4.6v-4.9h-1v4.9H27.4v-4.9h-1v4.9h-4.6c-4.7,0-8.5,3.8-8.5,8.5v55c0,4.7,3.8,8.5,8.5,8.5h55.1   c4.7,0,8.5-3.8,8.5-8.5V25C85.4,20.3,81.6,16.5,76.9,16.5z M72.3,22.3v-2.4c1.1,0.2,2,1.2,2,2.4c0,1.4-1.1,2.5-2.5,2.5   s-2.5-1.1-2.5-2.5c0-1.2,0.9-2.2,2-2.4v2.4H72.3z M27.4,22.3v-2.4c1.1,0.2,2,1.2,2,2.4c0,1.4-1.1,2.5-2.5,2.5s-2.5-1.1-2.5-2.5   c0-1.2,0.9-2.2,2-2.4v2.4H27.4z M84.4,80c0,4.1-3.4,7.5-7.5,7.5H21.8c-4.1,0-7.5-3.4-7.5-7.5V29.5h70.1C84.4,29.5,84.4,80,84.4,80z    M84.4,28.5H14.3V25c0-4.1,3.4-7.5,7.5-7.5h4.6v1.4c-1.7,0.2-3,1.7-3,3.4c0,1.9,1.6,3.5,3.5,3.5s3.5-1.6,3.5-3.5   c0-1.8-1.3-3.2-3-3.4v-1.4h43.9v1.4c-1.7,0.2-3,1.7-3,3.4c0,1.9,1.6,3.5,3.5,3.5s3.5-1.6,3.5-3.5c0-1.8-1.3-3.2-3-3.4v-1.4h4.6   c4.1,0,7.5,3.4,7.5,7.5V28.5z"></path><path d="M28.6,65.5l0.9,3.2l7.2,3.3l3.7,7.3l0.1,0.2l2.9,1.3l-0.9-8.9l7.2-7.4l9,14.4l0.1,0.2l2.8-4.5l0,0l-4.2-18.1l7.8-8.1   c0,0,2-2.2-0.3-4.5c-1.8-1.8-4.1-0.8-5,0l-8,8.2l-18.2-3.9h-0.2L29,51.1L44,60l-6.6,6.7L28.6,65.5z M37.7,71.2l0.4-3.7l22.5-23   c0,0,1.9-1.7,3.6,0c1.6,1.6,0.4,3.1,0.3,3.2L41.8,71.2H37.7z M41.3,78.7l-3.4-6.5h3.6l0.7,7L41.3,78.7z M56.7,57.2l3.9,17.2   l-1.8,2.8l-8.4-13.5L56.7,57.2z M30.9,50.9l2.8-1.8l17.4,3.7l-6.3,6.5L30.9,50.9z M37.1,67.7L36.7,71l-6.3-3L30,66.7L37.1,67.7z"></path><path d="M42.1,39.1c0.4,1.3,1.7,1.8,2.7,2.2c0.6,0.2,1.1,0.4,1.4,0.7l0.7,0.6l0.1-0.9c0.1-0.4,0.4-0.9,0.7-1.4   c0.6-1,1.2-2.1,0.8-3.4c0-0.1,0-0.1-0.1-0.2l0,0c-0.4-0.9-1.5-1.4-2.5-1.1c-0.5,0.2-0.9,0.5-1.1,1c-0.5-0.2-1-0.2-1.5-0.1   c-1,0.3-1.5,1.3-1.3,2.3C42,39,42.1,39.1,42.1,39.1z M47.5,37.2L47.5,37.2c0.3,1-0.2,1.8-0.7,2.7c-0.2,0.4-0.4,0.7-0.6,1   c-0.3-0.2-0.7-0.3-1.1-0.5c-0.9-0.4-1.9-0.8-2.2-1.6v-0.1c-0.1-0.5,0.2-1,0.7-1.2c0.4-0.1,0.8,0,1.1,0.3l0.8,0.9l0.1-1.2   c0-0.4,0.3-0.8,0.7-0.9C46.8,36.4,47.3,36.7,47.5,37.2z"></path><path d="M52.2,43.5l-0.1,0.9l0.8-0.5c0.2-0.1,0.6-0.2,0.9-0.2c0.7-0.1,1.7-0.2,2.2-1.1l0.1-0.1c0.3-0.7,0.1-1.5-0.5-1.9   c-0.3-0.2-0.6-0.3-0.9-0.2c-0.1-0.3-0.3-0.6-0.6-0.7c-0.6-0.4-1.5-0.3-1.9,0.3l-0.1,0.1c-0.5,0.8-0.3,1.7-0.1,2.4   C52.2,42.9,52.3,43.2,52.2,43.5z M55.1,41.5c0.2,0.1,0.3,0.4,0.2,0.6l0,0c-0.3,0.4-0.9,0.5-1.5,0.6c-0.2,0-0.4,0.1-0.6,0.1   c0-0.2-0.1-0.4-0.2-0.6c-0.2-0.6-0.3-1.2,0-1.7c0.1-0.2,0.4-0.2,0.6-0.1c0.2,0.1,0.2,0.3,0.2,0.5l-0.2,1.2l1-0.7   C54.7,41.4,55,41.4,55.1,41.5z"></path><path d="M59.9,39.4L59.9,39.4L59.9,39.4L59.9,39.4L59.9,39.4L59.9,39.4c0.3,0.2,0.6,0.4,0.8,0.6l0.6,0.7l0.3-0.9   c0.1-0.2,0.3-0.5,0.6-0.8c0.5-0.6,1.1-1.3,1-2.2v-0.1l0,0l0,0c-0.2-0.7-0.9-1.2-1.6-1.1c-0.3,0-0.6,0.2-0.8,0.4   c-0.3-0.2-0.6-0.2-0.9-0.2c-0.7,0.1-1.3,0.8-1.3,1.5v0.1C58.5,38.5,59.3,39,59.9,39.4z M60.2,37.1l0.6,1l0.3-1.1   c0-0.2,0.2-0.3,0.4-0.4c0.2,0,0.5,0.1,0.5,0.3V37c0.1,0.5-0.3,1-0.7,1.4c-0.1,0.1-0.3,0.3-0.4,0.5c-0.2-0.1-0.3-0.2-0.5-0.3   c-0.5-0.3-1-0.7-1.1-1.2c0-0.2,0.2-0.5,0.4-0.5C59.9,36.8,60.1,36.9,60.2,37.1z"></path></g></svg>