<svg fill="#FF675C" xmlns="http://www.w3.org/2000/svg" xmlns:xlink="http://www.w3.org/1999/xlink" version="1.1" x="0px" y="0px" viewBox="0 0 100 100" style="enable-background:new 0 0 100 100;" xml:space="preserve"><style type="text/css">
	.st0{fill:#FF675C;}
</style><g><path class="st0" d="M79,34.2c-2.4-2.4-5.3-1.1-6.5,0L61.6,45.4L36.9,40l-0.2,0l-5.8,3.7l20.2,12.4L42,65.3l-11.8-1.6l1.2,4   l9.7,4.5l5.1,9.9l0.1,0.2l3.6,1.6l-1.2-11.8l9.9-10.3l12.4,19.7l3.6-5.8l-5.7-24.5l10.6-11.1C79.5,40.1,82,37.2,79,34.2z    M41.1,71.1L32.3,67l-0.6-2.1l10,1.4L41.1,71.1z M32.8,43.7l4.1-2.6l23.9,5.2l-8.9,9.1L32.8,43.7z M48.7,82.3L47,81.5l-4.7-9.1h5.4   L48.7,82.3z M73.5,75.5l-2.6,4.1L59.3,61l8.8-9.2L73.5,75.5z M47.9,71.4h-5.9l0.6-5.3l30.5-31.2c0.1-0.1,2.8-2.4,5.1,0   c2.3,2.3,0.5,4.4,0.4,4.5L47.9,71.4z"></path><path class="st0" d="M48.4,27.7c0.6,1.7,2.2,2.3,3.6,2.9c0.8,0.3,1.5,0.6,1.9,1l0.7,0.6l0.1-0.9c0.1-0.6,0.5-1.3,0.9-2   c0.8-1.3,1.6-2.8,1.1-4.5c0-0.1-0.1-0.2-0.1-0.2l0,0c-0.5-1.2-1.9-1.8-3.1-1.3c-0.7,0.2-1.2,0.7-1.5,1.4c-0.6-0.3-1.4-0.4-2-0.2   c-1.2,0.4-1.9,1.7-1.6,3C48.3,27.5,48.4,27.6,48.4,27.7z M50.3,25.4c0.2-0.1,0.3-0.1,0.5-0.1c0.4,0,0.8,0.2,1.1,0.5l0.8,0.9   l0.1-1.2c0-0.6,0.4-1.1,1-1.3c0.8-0.3,1.6,0.1,1.9,0.8c0,0,0,0.1,0.1,0.1c0.4,1.2-0.3,2.5-1,3.7c-0.3,0.5-0.6,1.1-0.8,1.6   c-0.5-0.3-1-0.5-1.6-0.8c-1.3-0.5-2.6-1.1-3-2.3c0,0,0-0.1,0-0.1C49.1,26.5,49.5,25.7,50.3,25.4z"></path><path class="st0" d="M62.1,33.7l-0.1,0.9l0.8-0.5c0.3-0.2,0.8-0.2,1.3-0.3c1-0.1,2.2-0.3,2.8-1.4c0-0.1,0.1-0.1,0.1-0.2l0,0   c0.4-0.8,0.1-1.8-0.6-2.4c-0.4-0.2-0.8-0.3-1.3-0.3c-0.1-0.4-0.4-0.8-0.8-1c-0.8-0.5-1.8-0.3-2.4,0.4c0,0-0.1,0.1-0.1,0.1   c-0.7,1-0.3,2.2,0,3.1C62,32.8,62.2,33.3,62.1,33.7z M62.8,29.7c0.2-0.2,0.4-0.3,0.6-0.3c0.2,0,0.3,0,0.4,0.1   c0.3,0.2,0.4,0.5,0.4,0.8l-0.2,1.2l1-0.7c0.3-0.2,0.6-0.2,0.9,0c0.4,0.2,0.5,0.7,0.3,1.1l0,0.1c-0.4,0.7-1.3,0.8-2.1,0.9   c-0.3,0-0.7,0.1-1,0.2c-0.1-0.3-0.1-0.6-0.2-1C62.6,31.2,62.4,30.4,62.8,29.7z"></path><path class="st0" d="M72.4,28c0.4,0.3,0.9,0.5,1.1,0.8l0.6,0.8l0.3-0.9c0.1-0.3,0.4-0.7,0.8-1.1c0.6-0.7,1.4-1.7,1.3-2.9   c0-0.1,0-0.1,0-0.2l0,0c-0.2-0.9-1.1-1.5-2-1.4c-0.5,0.1-0.9,0.3-1.1,0.6c-0.4-0.2-0.8-0.3-1.3-0.3c-0.9,0.1-1.6,0.9-1.6,1.9   c0,0.1,0,0.1,0,0.2C70.6,26.8,71.6,27.4,72.4,28z M72.1,24.5c0,0,0.1,0,0.1,0c0.3,0,0.5,0.1,0.7,0.4l0.6,1l0.3-1.1   c0.1-0.3,0.3-0.6,0.7-0.6c0.4-0.1,0.8,0.2,0.9,0.6l0,0.1c0.1,0.8-0.4,1.4-1,2.1c-0.2,0.3-0.4,0.5-0.6,0.8c-0.2-0.2-0.5-0.4-0.8-0.6   c-0.8-0.5-1.5-0.9-1.6-1.8C71.4,24.9,71.7,24.6,72.1,24.5z"></path></g></svg>