<svg fill="#FF675C" xmlns="http://www.w3.org/2000/svg" xmlns:xlink="http://www.w3.org/1999/xlink" version="1.1" x="0px" y="0px" viewBox="0 0 96.38 96.38" enable-background="new 0 0 96.38 96.38" xml:space="preserve"><path d="M72.093,24.637c-1.03-0.595-2.213-0.869-3.381-0.847c0.33-1.131,0.354-2.333,0.041-3.502  c-0.058-0.218-0.2-0.404-0.396-0.517s-0.428-0.144-0.646-0.085c-1.162,0.311-2.186,0.927-2.999,1.771  c-0.554-1.004-1.376-1.876-2.439-2.491c-0.195-0.113-0.427-0.144-0.646-0.085c-0.218,0.059-0.404,0.201-0.517,0.396l-2.835,4.91  c-1.652,2.864-0.875,6.469,1.682,8.429l-3.776,6.54c-2.829-0.239-5.566-0.303-7.142-0.318v-9.703c3.194-0.419,5.67-3.152,5.67-6.458  V17.01c0-0.47-0.381-0.851-0.851-0.851c-1.227,0-2.375,0.343-3.356,0.935c-0.282-1.139-0.861-2.185-1.711-3.035  c-0.16-0.16-0.376-0.25-0.602-0.25s-0.442,0.09-0.602,0.249c-0.85,0.85-1.429,1.897-1.71,3.037c-0.981-0.593-2.13-0.936-3.358-0.936  c-0.47,0-0.851,0.381-0.851,0.851v5.668c0,3.307,2.476,6.04,5.669,6.458v9.703c-1.575,0.015-4.312,0.079-7.141,0.317l-3.776-6.54  c2.557-1.96,3.335-5.566,1.681-8.429l-2.835-4.91c-0.113-0.195-0.298-0.338-0.516-0.396c-0.219-0.059-0.451-0.028-0.646,0.085  c-1.063,0.614-1.886,1.486-2.44,2.491c-0.812-0.844-1.836-1.46-2.998-1.771c-0.218-0.06-0.451-0.029-0.646,0.084  c-0.195,0.113-0.338,0.299-0.396,0.517c-0.313,1.169-0.291,2.372,0.041,3.504c-1.169-0.022-2.351,0.251-3.38,0.846  c-0.407,0.235-0.546,0.755-0.311,1.162l2.834,4.91c1.161,2.012,3.326,3.262,5.651,3.262h0c0.854,0,1.701-0.17,2.489-0.497  l3.388,5.867c-4.169,0.476-8.009,1.397-8.009,3.179c0,0.97,0.097,1.924,0.247,2.864c0,0.032,0.011,0.062,0.014,0.094  c0.604,3.644,2.304,7.005,4.964,9.665l4.216,4.299c3.053,3.052,4.733,7.11,4.733,11.426c0,0.082,0.013,0.161,0.036,0.235  c0.066,1.038,0.576,1.948,1.331,2.573c-0.811,0.671-1.339,1.672-1.339,2.805v2.893c0,0.47,0.381,0.851,0.851,0.851h5.612  c0.47,0,0.851-0.381,0.851-0.851V76.48c0-1.133-0.528-2.134-1.339-2.805c0.752-0.622,1.261-1.528,1.33-2.561  c0.024-0.079,0.037-0.162,0.037-0.248c0-4.315,1.681-8.373,4.738-11.432l4.204-4.287c2.658-2.659,4.358-6.013,4.967-9.648  c0.005-0.041,0.019-0.08,0.018-0.121c0.15-0.938,0.247-1.891,0.247-2.86c0-1.782-3.84-2.703-8.009-3.179l3.388-5.867  c0.788,0.327,1.636,0.497,2.489,0.497c2.325,0,4.49-1.25,5.651-3.262l2.835-4.91C72.639,25.392,72.499,24.872,72.093,24.637z   M29.115,21.661c0.763,0.375,1.402,0.953,1.876,1.674c-0.088,0.437-0.145,0.881-0.142,1.33c-0.382-0.225-0.796-0.395-1.22-0.534  C29.24,23.358,29.057,22.513,29.115,21.661z M32.462,32.269c-1.719,0-3.32-0.924-4.178-2.411l-2.372-4.108  c0.522-0.189,1.074-0.287,1.629-0.287c0.426,0,0.844,0.058,1.246,0.165c0.008,0.002,0.016,0.005,0.024,0.007  c1.211,0.332,2.268,1.127,2.91,2.24c0.236,0.407,0.756,0.547,1.162,0.312c0.272-0.158,0.425-0.443,0.425-0.736  c0-0.145-0.037-0.292-0.114-0.426c-1.184-2.05-0.686-4.618,1.063-6.094l2.372,4.108c1.329,2.301,0.537,5.255-1.764,6.584  C34.134,32.045,33.303,32.269,32.462,32.269L32.462,32.269z M48.19,15.993c0.473,0.706,0.737,1.525,0.79,2.385  c-0.296,0.335-0.568,0.692-0.791,1.083c-0.222-0.389-0.493-0.745-0.787-1.079C47.454,17.52,47.717,16.699,48.19,15.993z   M43.371,22.678v-4.742c2.252,0.402,3.968,2.376,3.968,4.742c0,0.47,0.381,0.851,0.851,0.851s0.851-0.381,0.851-0.851  c0-2.366,1.716-4.34,3.969-4.742v4.742c0,2.657-2.162,4.819-4.819,4.819C45.533,27.497,43.371,25.335,43.371,22.678z M50.146,76.48  v2.042h-3.911V76.48c0-1.079,0.877-1.956,1.956-1.956C49.269,74.524,50.146,75.401,50.146,76.48z M59.608,53.951l-4.204,4.287  c-3.32,3.321-5.172,7.719-5.229,12.405c-0.019,0.071-0.029,0.146-0.029,0.224c0,1.079-0.877,1.956-1.956,1.956  c-1.078,0-1.956-0.877-1.956-1.956c0-0.074-0.01-0.146-0.029-0.214c-0.055-4.69-1.907-9.092-5.224-12.409l-4.216-4.299  c-1.882-1.882-3.241-4.147-4.008-6.619c0.832,0.375,1.739,0.58,2.679,0.58c0,0,0,0,0.001,0c1.584,0,3.081-0.561,4.268-1.59  c1.177,1.018,2.678,1.589,4.237,1.591c1.563-0.002,3.069-0.579,4.249-1.607c1.181,1.03,2.689,1.607,4.253,1.607  c1.555,0,3.056-0.572,4.235-1.592c1.185,1.029,2.683,1.59,4.267,1.59h0.001c0.938,0,1.844-0.203,2.675-0.578  C62.854,49.799,61.494,52.065,59.608,53.951z M64.146,44.961c-1.89,1.691-4.792,1.646-6.606-0.168  c-0.026-0.026-0.047-0.056-0.068-0.084c-0.045-0.058-0.09-0.116-0.14-0.171c-0.162-0.183-0.381-0.282-0.639-0.286  c-0.244,0.001-0.477,0.107-0.638,0.291c-0.925,1.058-2.241,1.665-3.611,1.665c-1.373,0-2.689-0.607-3.612-1.666  c-0.162-0.185-0.396-0.292-0.641-0.292s-0.479,0.106-0.641,0.292c-0.922,1.057-2.238,1.664-3.608,1.666  c-1.376-0.001-2.694-0.609-3.616-1.667c-0.162-0.185-0.396-0.292-0.641-0.292c-0.002,0-0.005,0-0.007,0  c-0.249,0.002-0.483,0.113-0.644,0.302c-0.044,0.053-0.086,0.108-0.126,0.162c-0.021,0.029-0.042,0.061-0.064,0.083  c-1.813,1.814-4.719,1.859-6.61,0.166c-0.116-0.767-0.195-1.542-0.201-2.331c0.703-0.735,6.124-2.093,16.157-2.093  c10.034,0,15.454,1.358,16.158,2.093C64.343,43.418,64.263,44.194,64.146,44.961z M67.266,21.661  c0.058,0.852-0.125,1.697-0.515,2.469c-0.424,0.14-0.837,0.31-1.22,0.535c0.003-0.449-0.054-0.893-0.142-1.33  C65.863,22.615,66.502,22.036,67.266,21.661z M68.096,29.858c-0.858,1.487-2.459,2.411-4.179,2.411c-0.84,0-1.671-0.224-2.403-0.646  c-2.301-1.33-3.093-4.283-1.765-6.584l2.372-4.108c1.75,1.476,2.248,4.043,1.064,6.094c-0.078,0.134-0.114,0.281-0.114,0.425  c0,0.294,0.152,0.579,0.425,0.736c0.409,0.236,0.927,0.096,1.162-0.311c0.643-1.112,1.7-1.909,2.911-2.24  c0.008-0.002,0.016-0.004,0.023-0.006c0.401-0.107,0.82-0.165,1.246-0.165c0.556,0,1.107,0.098,1.629,0.287L68.096,29.858z"></path></svg>