<svg fill="#FF675C" xmlns="http://www.w3.org/2000/svg" xmlns:xlink="http://www.w3.org/1999/xlink" version="1.1" x="0px" y="0px" viewBox="0 0 96.38 96.38" enable-background="new 0 0 96.38 96.38" xml:space="preserve"><g><path d="M56.695,36.001H48.19c-1.477,0-2.865-0.575-3.909-1.619c-1.044-1.045-1.619-2.433-1.619-3.909   c0-3.048,2.479-5.527,5.527-5.527s5.527,2.479,5.527,5.527c0,1.641,1.336,2.977,2.978,2.977c1.641,0,2.976-1.335,2.976-2.977   c0-6.33-5.15-11.48-11.48-11.48s-11.48,5.15-11.48,11.48V74.41c0,1.642,1.335,2.977,2.977,2.977h17.009   c1.641,0,2.976-1.335,2.976-2.977V38.978C59.671,37.336,58.336,36.001,56.695,36.001z M57.97,74.41   c0,0.703-0.571,1.275-1.274,1.275H39.687c-0.703,0-1.275-0.572-1.275-1.275V30.474c0-5.393,4.387-9.779,9.779-9.779   s9.779,4.387,9.779,9.779c0,0.703-0.571,1.275-1.274,1.275c-0.704,0-1.276-0.572-1.276-1.275c0-3.986-3.243-7.229-7.229-7.229   c-3.986,0-7.229,3.243-7.229,7.229c0,1.93,0.752,3.745,2.117,5.111c1.366,1.365,3.181,2.117,5.112,2.117h8.505   c0.703,0,1.274,0.572,1.274,1.275V74.41z"></path><path d="M50.457,51.593c-0.834,0-1.623,0.294-2.267,0.829c-0.644-0.535-1.433-0.829-2.268-0.829c-2.032,0-3.685,1.653-3.685,3.685   c0,0.983,0.383,1.908,1.082,2.608l4.272,4.232c0.166,0.164,0.382,0.246,0.599,0.246s0.433-0.082,0.599-0.246l4.275-4.235   c0.695-0.696,1.079-1.621,1.079-2.605C54.144,53.246,52.489,51.593,50.457,51.593z M51.864,56.677l-3.674,3.64l-3.67-3.636   c-0.375-0.376-0.581-0.874-0.581-1.403c0-1.094,0.89-1.983,1.983-1.983c0.834,0,1.345,0.541,1.575,0.863   c0.159,0.225,0.417,0.357,0.692,0.357s0.533-0.133,0.692-0.356c0.392-0.55,0.966-0.864,1.574-0.864c1.095,0,1.985,0.89,1.985,1.983   C52.442,55.807,52.236,56.306,51.864,56.677z"></path></g></svg>