<svg fill="#FF675C" xmlns="http://www.w3.org/2000/svg" xmlns:xlink="http://www.w3.org/1999/xlink" version="1.1" x="0px" y="0px" viewBox="0 0 96.38 96.38" enable-background="new 0 0 96.38 96.38" xml:space="preserve"><g><path d="M68.832,33.166H29.146c-2.032,0-3.685,1.653-3.685,3.686v28.346c0,2.032,1.653,3.686,3.685,3.686h39.686   c2.032,0,3.686-1.653,3.686-3.686V36.852C72.518,34.819,70.864,33.166,68.832,33.166z M56.525,55.521   c0.79-1.317,1.252-2.852,1.252-4.496s-0.463-3.18-1.252-4.497l14.143-10.422c0.095,0.23,0.148,0.481,0.148,0.745v28.346   c0,0.264-0.055,0.515-0.148,0.746L56.525,55.521z M27.311,65.942c-0.094-0.23-0.148-0.481-0.148-0.745V36.852   c0-0.264,0.054-0.515,0.148-0.745l14.143,10.421c-0.79,1.318-1.252,2.853-1.252,4.497s0.462,3.179,1.251,4.496L27.311,65.942z    M41.903,51.025c0-3.907,3.179-7.085,7.086-7.085c3.908,0,7.087,3.178,7.087,7.085c0,3.906-3.179,7.085-7.087,7.085   C45.082,58.11,41.903,54.932,41.903,51.025z M68.832,34.867c0.188,0,0.365,0.035,0.537,0.083L55.514,45.16   c-1.609-1.788-3.935-2.921-6.524-2.921s-4.915,1.133-6.524,2.921l-13.856-10.21c0.172-0.049,0.35-0.083,0.538-0.083H68.832z    M29.146,67.182c-0.188,0-0.366-0.034-0.538-0.084l13.855-10.209c1.61,1.789,3.935,2.923,6.525,2.923   c2.591,0,4.916-1.133,6.525-2.922l13.854,10.209c-0.171,0.049-0.349,0.083-0.536,0.083H29.146z"></path><path d="M48.39,55.533c0.166,0.165,0.382,0.247,0.599,0.247c0.216,0,0.433-0.082,0.599-0.246l3.677-3.643   c0.533-0.535,0.827-1.245,0.827-2.001c0-1.563-1.271-2.834-2.834-2.834c-0.889,0-1.716,0.445-2.268,1.221   c-0.554-0.776-1.38-1.221-2.268-1.221c-1.563,0-2.835,1.271-2.835,2.834c0,0.756,0.295,1.468,0.834,2.006L48.39,55.533z    M46.722,48.757c0.43,0,0.717,0.276,0.885,0.511c0.639,0.888,2.125,0.89,2.769-0.004c0.229-0.322,0.551-0.507,0.882-0.507   c0.625,0,1.133,0.508,1.133,1.133c0,0.302-0.117,0.586-0.327,0.796l-3.074,3.046l-3.068-3.041   c-0.215-0.215-0.333-0.499-0.333-0.801C45.588,49.266,46.097,48.757,46.722,48.757z"></path></g></svg>